<svg id="Layer_1" data-name="Layer 1" xmlns="http://www.w3.org/2000/svg" viewBox="0 0 451.88 345.3"><polygon points="7.86 75 0 75 0 120.63 7.86 120.63 7.86 241.77 53.48 241.77 53.48 74.98 7.86 74.98 7.86 75"/><circle cx="337.79" cy="378.47" r="29.11" transform="translate(-448.25 196.36) rotate(-67.5)"/><circle cx="729.89" cy="562.01" r="29.11" transform="translate(-466.63 -27.26) rotate(-22.5)"/><path d="M694.27,538c0-29.26-23.51-53.07-52.42-53.07h-33c-3.74,0-6.79-3.34-6.79-7.44s3.05-7.44,6.79-7.44h73.86V424.4H608.28c-28.65.31-51.87,24-51.87,53.06,0,29.26,23.52,53.07,52.42,53.07h33c3.75,0,6.79,3.33,6.79,7.44s-3,7.44-6.79,7.44h-74.4v45.63h74.4C670.76,591.05,694.27,567.24,694.27,538Z" transform="translate(-307.12 -349.35)"/><path d="M459.31,424.35c-.67,0-1.33,0-2,0h-.6v0a83.66,83.66,0,0,0,2.59,167.29c.88,0,1.75,0,2.63-.06A28.75,28.75,0,0,1,459.31,649v45.63a74.33,74.33,0,0,0,55.38-124A83.44,83.44,0,0,0,533.83,470h10.81V424.4H461.31C460.64,424.39,460,424.35,459.31,424.35ZM497.37,508A38.1,38.1,0,0,1,462.18,546c-1,0-1.91-.07-2.87-.07v.19a38.06,38.06,0,0,1-2-76.06h3.93A38.11,38.11,0,0,1,497.37,508Z" transform="translate(-307.12 -349.35)"/></svg>